<svg width="24" height="24" viewBox="0 0 24 24" fill="none" xmlns="http://www.w3.org/2000/svg">
<g id="menu" clip-path="url(#clip0_18_262)">
<g id="Layer 2">
<g id="menu_2">
<path id="Vector" d="M22.05 11H5.95C5.42533 11 5 11.4253 5 11.95V12.05C5 12.5747 5.42533 13 5.95 13H22.05C22.5747 13 23 12.5747 23 12.05V11.95C23 11.4253 22.5747 11 22.05 11Z" fill="black"/>
<path id="Vector_2" d="M18.05 16H1.95C1.42533 16 1 16.4253 1 16.95V17.05C1 17.5747 1.42533 18 1.95 18H18.05C18.5747 18 19 17.5747 19 17.05V16.95C19 16.4253 18.5747 16 18.05 16Z" fill="black"/>
<path id="Vector_3" d="M18.05 6H1.95C1.42533 6 1 6.42533 1 6.95V7.05C1 7.57467 1.42533 8 1.95 8H18.05C18.5747 8 19 7.57467 19 7.05V6.95C19 6.42533 18.5747 6 18.05 6Z" fill="black"/>
</g>
</g>
</g>
<defs>
<clipPath id="clip0_18_262">
<rect width="24" height="24" fill="white"/>
</clipPath>
</defs>
</svg>
